# xmcd
#
# Track frame offsets:
#	150
#	11944
#	26035
#	39768
#	51615
#	64498
#	76794
#	88034
#	100591
#	110799
#
# Disc length: 1691 seconds
#
# Revision: 1
# Processed by: cddbd v1.5.2PL0 Copyright (c) Steve Scherf et al.
# Submitted via: audiograbber 1.83.01
#
DISCID=8106990a
DTITLE=Johnny Paycheck - Take this job and shove it
DYEAR=1900
DGENRE=
TTITLE0=Take This Job And Shove It
TTITLE1=From Cotton To Satin
TTITLE2=The Spirits Of St.Louis
TTITLE3=The 4-F Blues
TTITLE4=Barstool Mountain
TTITLE5=Georgia In A Jug
TTITLE6=The Fool Strikes Again
TTITLE7=The Man From Bowling Green
TTITLE8=When I Had A Hone To Go
TTITLE9=Colorado Kool-Aid
EXTD=
EXTT0=
EXTT1=
EXTT2=
EXTT3=
EXTT4=
EXTT5=
EXTT6=
EXTT7=
EXTT8=
EXTT9=
PLAYORDER=
